<svg width="100" height="42" viewBox="0 0 100 42" fill="none" xmlns="http://www.w3.org/2000/svg">
<path d="M36.9649 19.0745C36.9649 19.8153 37.045 20.416 37.1852 20.8564C37.3453 21.2969 37.5456 21.7775 37.8259 22.298C37.926 22.4582 37.966 22.6184 37.966 22.7585C37.966 22.9588 37.8459 23.159 37.5856 23.3592L36.3242 24.2001C36.144 24.3203 35.9638 24.3803 35.8036 24.3803C35.6034 24.3803 35.4032 24.2802 35.203 24.1C34.9227 23.7997 34.6824 23.4793 34.4822 23.159C34.2819 22.8186 34.0817 22.4382 33.8615 21.9777C32.2997 23.8197 30.3376 24.7407 27.975 24.7407C26.2931 24.7407 24.9516 24.2602 23.9705 23.2991C22.9894 22.3381 22.4889 21.0567 22.4889 19.4549C22.4889 17.753 23.0896 16.3715 24.3109 15.3303C25.5323 14.2892 27.1541 13.7686 29.2163 13.7686C29.8971 13.7686 30.5979 13.8287 31.3387 13.9288C32.0795 14.0289 32.8403 14.1891 33.6412 14.3693V12.9076C33.6412 11.386 33.3209 10.3248 32.7002 9.7041C32.0595 9.08341 30.9783 8.78308 29.4366 8.78308C28.7358 8.78308 28.015 8.86317 27.2742 9.04337C26.5334 9.22357 25.8126 9.44381 25.1118 9.72412C24.7914 9.86428 24.5512 9.94436 24.411 9.98441C24.2709 10.0245 24.1708 10.0445 24.0907 10.0445C23.8104 10.0445 23.6702 9.84425 23.6702 9.42379V8.4427C23.6702 8.12235 23.7102 7.88208 23.8104 7.74193C23.9105 7.60177 24.0907 7.46162 24.371 7.32146C25.0717 6.96106 25.9127 6.66073 26.8938 6.42047C27.8749 6.16018 28.916 6.04004 30.0172 6.04004C32.3999 6.04004 34.1418 6.58064 35.263 7.66184C36.3642 8.74304 36.9249 10.3849 36.9249 12.5873V19.0745H36.9649ZM28.8359 22.1178C29.4966 22.1178 30.1774 21.9977 30.8982 21.7574C31.619 21.5172 32.2597 21.0767 32.8003 20.476C33.1207 20.0956 33.3609 19.6751 33.4811 19.1946C33.6012 18.7141 33.6813 18.1334 33.6813 17.4527V16.6117C33.1006 16.4716 32.4799 16.3515 31.8392 16.2714C31.1985 16.1913 30.5778 16.1512 29.9572 16.1512C28.6157 16.1512 27.6346 16.4115 26.9739 16.9521C26.3131 17.4927 25.9928 18.2536 25.9928 19.2547C25.9928 20.1957 26.233 20.8965 26.7336 21.377C27.2141 21.8776 27.9149 22.1178 28.8359 22.1178ZM44.9137 24.2802C44.5533 24.2802 44.313 24.2202 44.1529 24.08C43.9927 23.9599 43.8525 23.6796 43.7324 23.2991L39.0272 7.82202C38.9071 7.42157 38.847 7.16129 38.847 7.02113C38.847 6.70078 39.0072 6.52058 39.3275 6.52058H41.2897C41.6701 6.52058 41.9304 6.58064 42.0706 6.7208C42.2307 6.84093 42.3509 7.12124 42.471 7.50166L45.8347 20.7563L48.9582 7.50166C49.0583 7.10122 49.1784 6.84093 49.3386 6.7208C49.4988 6.60066 49.7791 6.52058 50.1395 6.52058H51.7413C52.1217 6.52058 52.382 6.58064 52.5421 6.7208C52.7023 6.84093 52.8425 7.12124 52.9226 7.50166L56.0861 20.9165L59.5499 7.50166C59.67 7.10122 59.8102 6.84093 59.9503 6.7208C60.1105 6.60066 60.3708 6.52058 60.7312 6.52058H62.5933C62.9136 6.52058 63.0938 6.68075 63.0938 7.02113C63.0938 7.12124 63.0738 7.22135 63.0538 7.34148C63.0338 7.46162 62.9937 7.62179 62.9136 7.84204L58.0883 23.3192C57.9681 23.7196 57.828 23.9799 57.6678 24.1C57.5076 24.2202 57.2474 24.3003 56.907 24.3003H55.1851C54.8046 24.3003 54.5444 24.2402 54.3842 24.1C54.224 23.9599 54.0839 23.6996 54.0038 23.2991L50.9003 10.3849L47.8169 23.2791C47.7168 23.6796 47.5967 23.9399 47.4365 24.08C47.2763 24.2202 46.996 24.2802 46.6356 24.2802H44.9137ZM70.6422 24.8208C69.601 24.8208 68.5599 24.7007 67.5588 24.4604C66.5577 24.2202 65.7768 23.9599 65.2562 23.6595C64.9359 23.4793 64.7156 23.2791 64.6355 23.0989C64.5554 22.9187 64.5154 22.7185 64.5154 22.5383V21.5172C64.5154 21.0967 64.6756 20.8965 64.9759 20.8965C65.096 20.8965 65.2162 20.9165 65.3363 20.9566C65.4564 20.9966 65.6366 21.0767 65.8369 21.1568C66.5176 21.4571 67.2584 21.6974 68.0393 21.8575C68.8402 22.0177 69.621 22.0978 70.4219 22.0978C71.6833 22.0978 72.6644 21.8776 73.3452 21.4371C74.0259 20.9966 74.3863 20.3559 74.3863 19.535C74.3863 18.9744 74.2061 18.5138 73.8457 18.1334C73.4853 17.753 72.8046 17.4126 71.8235 17.0923L68.9203 16.1913C67.4587 15.7308 66.3775 15.05 65.7167 14.149C65.056 13.268 64.7156 12.287 64.7156 11.2458C64.7156 10.4049 64.8958 9.66405 65.2562 9.02335C65.6166 8.38264 66.0971 7.82202 66.6978 7.38153C67.2985 6.92102 67.9792 6.58064 68.7801 6.34038C69.581 6.10011 70.4219 6 71.3029 6C71.7434 6 72.2039 6.02002 72.6444 6.08009C73.1049 6.14016 73.5254 6.22024 73.9458 6.30033C74.3463 6.40044 74.7267 6.50055 75.0871 6.62069C75.4475 6.74082 75.7278 6.86095 75.928 6.98109C76.2083 7.14126 76.4086 7.30144 76.5287 7.48164C76.6488 7.64182 76.7089 7.86206 76.7089 8.14237V9.08341C76.7089 9.50388 76.5487 9.72412 76.2484 9.72412C76.0882 9.72412 75.8279 9.64403 75.4875 9.48386C74.3463 8.96328 73.0649 8.70299 71.6433 8.70299C70.502 8.70299 69.601 8.88319 68.9803 9.26361C68.3596 9.64403 68.0393 10.2247 68.0393 11.0456C68.0393 11.6062 68.2395 12.0867 68.64 12.4672C69.0404 12.8476 69.7812 13.228 70.8424 13.5684L73.6855 14.4694C75.1271 14.9299 76.1683 15.5706 76.789 16.3915C77.4097 17.2124 77.71 18.1534 77.71 19.1946C77.71 20.0556 77.5298 20.8364 77.1894 21.5172C76.829 22.1979 76.3485 22.7986 75.7278 23.2791C75.1071 23.7797 74.3663 24.1401 73.5053 24.4004C72.6043 24.6807 71.6633 24.8208 70.6422 24.8208Z" fill="#020D20" fill-opacity="0.43"/>
<path fill-rule="evenodd" clip-rule="evenodd" d="M74.4266 34.5516C67.8393 39.417 58.2687 41.9999 50.0396 41.9999C38.5069 41.9999 28.1154 37.7351 20.2667 30.6473C19.646 30.0867 20.2066 29.3258 20.9475 29.7663C29.4368 34.6918 39.9084 37.6751 50.7404 37.6751C58.0485 37.6751 66.0774 36.1534 73.4656 33.0299C74.5668 32.5294 75.5078 33.7507 74.4266 34.5516Z" fill="#020D20" fill-opacity="0.43"/>
<path fill-rule="evenodd" clip-rule="evenodd" d="M77.1698 31.4287C76.3288 30.3475 71.6036 30.9081 69.4612 31.1684C68.8205 31.2485 68.7204 30.6879 69.3011 30.2674C73.0652 27.6245 79.2521 28.3853 79.9729 29.2663C80.6937 30.1673 79.7727 36.3542 76.2488 39.3174C75.7082 39.7779 75.1876 39.5377 75.4278 38.937C76.2287 36.9548 78.0107 32.4899 77.1698 31.4287Z" fill="#020D20" fill-opacity="0.43"/>
</svg>
