<svg width="172" height="26" viewBox="0 0 172 26" fill="none" xmlns="http://www.w3.org/2000/svg">
<path d="M23.1202 25.0358V0.5H28.7075V25.0358H23.1202ZM131.716 15.8727C131.716 9.94506 127.119 6.26606 121.745 6.26606C116.371 6.26606 111.774 9.97944 111.774 15.8727C111.774 21.766 116.371 25.5 121.745 25.5C127.119 25.5 131.716 21.7557 131.716 15.8624V15.8727ZM126.215 15.8727C126.215 18.9672 124.152 20.7104 121.717 20.7104C119.283 20.7104 117.22 18.9741 117.22 15.8727C117.22 12.7714 119.283 11.0591 121.717 11.0591C124.152 11.0591 126.198 12.7301 126.198 15.8624L126.215 15.8727ZM20.8887 17.9838C20.8887 15.2332 19.4584 13.1117 16.9037 12.1593C19.3106 10.8321 20.1736 9.09235 20.1736 7.04999C20.1736 3.47414 17.5845 0.517192 11.7944 0.544698H0.688629V25.0702H12.2689C18.0762 25.0358 20.8715 22.1304 20.8715 17.9735L20.8887 17.9838ZM14.2459 7.76516C14.2459 9.43275 13.1903 10.3886 11.1514 10.3886H6.49595V5.26895H11.1274C13.0047 5.26895 14.2287 6.08726 14.2287 7.75485L14.2459 7.76516ZM14.7238 17.5987C14.7238 19.201 13.5995 20.2566 11.5228 20.2566H6.49595V14.9444H11.5365C13.5479 14.9444 14.7238 15.9655 14.7238 17.5987ZM69.4997 11.2619C67.9662 8.06086 65.1055 6.29013 60.7801 6.29013C55.6707 6.29013 51.1047 9.4912 51.1047 15.8624C51.1047 22.0514 55.1241 25.4897 60.7113 25.4897C64.6276 25.4897 67.9318 23.9218 69.4997 20.5488L65.0023 18.2314C64.184 19.7305 62.9394 20.6829 60.9142 20.6829C58.3251 20.6829 56.6575 18.8434 56.6575 15.8452C56.6575 12.847 58.5658 11.0316 60.8832 11.0316C62.6884 11.0316 64.0499 11.8499 64.9026 13.6206L69.4997 11.2619ZM151.834 11.2619C150.3 8.06086 147.439 6.29013 143.114 6.29013C138.005 6.29013 133.439 9.4912 133.439 15.8624C133.439 22.0514 137.458 25.4897 143.045 25.4897C146.961 25.4897 150.266 23.9218 151.834 20.5488L147.336 18.2314C146.518 19.7305 145.273 20.6829 143.248 20.6829C140.659 20.6829 138.991 18.8434 138.991 15.8452C138.991 12.847 140.9 11.0316 143.217 11.0316C145.022 11.0316 146.384 11.8499 147.237 13.6206L151.834 11.2619ZM105.011 25.0358L100.338 16.7839H96.7621V25.0358H91.0098V0.5H101.4C107.022 0.5 110.938 3.1922 110.938 8.47002C110.938 11.843 109.271 14.2258 106.307 15.6905L111.684 25.0358H105.011ZM96.7999 11.9221H101.094C103.752 11.9221 105.045 10.423 105.045 8.65225C105.045 6.54112 103.818 5.38241 101.094 5.38241H96.7999V11.9221ZM50.2004 24.7195V20.8686C49.8906 20.9574 49.5702 21.0037 49.248 21.0061C48.5328 21.0061 48.158 20.6313 48.158 19.9746V13.6137C48.158 8.84479 44.957 6.32451 39.6757 6.32451C36.2374 6.32451 33.3045 7.58637 31.465 9.21957L34.5595 12.6957C35.7878 11.5869 37.3748 10.9582 39.0293 10.925C41.4808 10.925 42.6395 12.1525 42.6395 14.1604V14.7381C41.2015 14.3832 39.7265 14.1997 38.2454 14.1914C33.7755 14.1914 30.8874 16.3369 30.8874 19.8818C30.8874 23.5264 33.2942 25.4347 37.0523 25.4347C39.6069 25.4347 41.89 24.3791 43.0831 23.0278C43.7982 24.833 45.3661 25.3109 46.8996 25.3109C48.0293 25.35 49.1545 25.1484 50.2004 24.7195ZM42.6705 18.9638C42.6705 20.6313 41.0682 21.7144 39.2322 21.7144C37.4958 21.7144 36.6431 20.8273 36.6431 19.6033C36.6431 18.3105 37.5955 17.3546 39.5382 17.3546C40.5945 17.37 41.6456 17.5073 42.6705 17.7638V18.9638ZM171.81 25.0358L165.236 13.6241L171.401 6.91246H165.212L158.707 14.1329V0.534383H153.144V25.0599H158.696V20.6313L161.354 17.805L165.511 25.0599H171.814L171.81 25.0358ZM89.5451 25.0358L82.971 13.6241L89.1359 6.91246H82.8678L76.4313 14.1329V0.534383H70.8784V25.0599H76.4313V20.6313L79.0891 17.805L83.246 25.0599H89.5485L89.5451 25.0358Z" fill="#020D20" fill-opacity="0.43"/>
</svg>
