<svg width="80" height="30" viewBox="0 0 80 30" fill="none" xmlns="http://www.w3.org/2000/svg">
<mask id="mask0_1727_18639" style="mask-type:luminance" maskUnits="userSpaceOnUse" x="9" y="2" width="62" height="26">
<path d="M70.8691 2H9V27.7087H70.8691V2Z" fill="white"/>
</mask>
<g mask="url(#mask0_1727_18639)">
<path fill-rule="evenodd" clip-rule="evenodd" d="M26.7798 26.7485H20.1454V17.2864H15.8388V26.7485H9V2.36133H15.8388V11.4332H20.1454V2.36133H26.7798V26.7485Z" fill="#020D20" fill-opacity="0.43"/>
<path fill-rule="evenodd" clip-rule="evenodd" d="M57.1746 19.2547C59.8668 19.2547 62.0492 17.0742 62.0492 14.3838C62.0492 11.6941 59.8668 9.51328 57.1746 9.51328C54.4822 9.51328 52.3 11.6941 52.3 14.3838C52.3 17.0742 54.4822 19.2547 57.1746 19.2547ZM50.9738 14.3838C50.9738 10.9622 53.7498 8.18807 57.1746 8.18807C60.5994 8.18807 63.3759 10.9622 63.3759 14.3838C63.3759 17.806 60.5994 20.58 57.1746 20.58C53.7498 20.58 50.9738 17.806 50.9738 14.3838ZM42.3392 14.3838C43.1065 14.2867 44.3857 13.4101 44.8362 12.8506C44.6778 13.5444 44.6658 15.5523 44.8509 16.2462C44.3366 15.455 43.1189 14.4812 42.3392 14.3838ZM37.8813 7.82441C38.8557 7.82441 39.6231 8.78558 39.6231 9.88102C39.6231 10.9764 38.8557 11.9382 37.8813 11.9382H34.5319V7.82441H37.8813ZM37.869 16.9639C38.8434 16.9639 39.6109 17.9256 39.6109 19.0206C39.6109 20.1162 38.8434 21.0776 37.869 21.0776H34.5197V16.9639H37.869ZM57.1706 26.8679C63.9954 26.8652 69.5494 21.1992 69.5478 14.379C69.5465 7.41494 63.9954 2.00516 57.1706 2C50.3537 1.99509 46.8705 7.00898 46.0099 9.03274C46.0179 5.99469 43.0212 2.40874 39.5157 2.40491H28.2217V26.7466L38.7515 26.7487C42.9969 26.7487 46.0178 23.073 46.0229 19.9212C46.992 21.9049 50.3537 26.8702 57.1706 26.8679Z" fill="#020D20" fill-opacity="0.43"/>
<path fill-rule="evenodd" clip-rule="evenodd" d="M67.7364 3.75575V3.21948H68.0889C68.2694 3.21948 68.4615 3.2591 68.4615 3.47361C68.4615 3.73995 68.2654 3.75575 68.046 3.75575H67.7364ZM67.7364 3.97816H68.0341L68.4851 4.72894H68.7752L68.2889 3.96631C68.54 3.93447 68.732 3.79956 68.732 3.48954C68.732 3.14802 68.5321 2.99707 68.1281 2.99707H67.4774V4.72894H67.7364V3.97816ZM68.0501 5.36468C68.8576 5.36468 69.5476 4.72894 69.5476 3.85906C69.5476 2.99707 68.8576 2.36133 68.0501 2.36133C67.2343 2.36133 66.5443 2.99707 66.5443 3.85906C66.5443 4.72894 67.2343 5.36468 68.0501 5.36468ZM66.8423 3.85906C66.8423 3.14802 67.3715 2.61163 68.0501 2.61163C68.7204 2.61163 69.2498 3.14802 69.2498 3.85906C69.2498 4.58207 68.7204 5.11438 68.0501 5.11438C67.3715 5.11438 66.8423 4.58207 66.8423 3.85906Z" fill="#020D20" fill-opacity="0.43"/>
</g>
</svg>
