<svg width="100" height="30" viewBox="0 0 100 30" fill="none" xmlns="http://www.w3.org/2000/svg">
<path fill-rule="evenodd" clip-rule="evenodd" d="M23.2401 5.37388H21.2593H18.1917H16.3307L16.3017 8.03803H16V5.04675V3.81825C17.0431 3.86914 20.8231 3.90185 24.7449 3.90185C29.3209 3.90185 32.2649 3.8546 33.4207 3.82189V5.18123L33.4425 8.20887H33.1445C33.1445 7.96172 33.0936 6.95856 33.0936 6.86042C33.0936 6.82408 33.0318 5.47565 33.0209 5.37388H31.7088H26.2387V24.0449C26.2387 24.0703 26.2678 25.2661 26.2714 25.4987C26.4241 25.5205 27.8815 25.6187 28.1469 25.6187H28.2487V26.1275H27.9906C27.1619 26.1275 25.8098 26.0185 24.8757 26.0185C23.9416 26.0185 22.6223 26.113 21.6445 26.1275H21.3429V25.586H21.5028C21.9171 25.586 22.9312 25.5023 23.1965 25.4805H23.2365V5.37388H23.2401ZM40.908 26.1639C40.1411 26.1639 38.8363 26.0366 37.8586 26.0366C36.8808 26.0366 35.5796 26.1639 34.6346 26.1639C34.5547 26.1639 34.413 26.1457 34.3366 26.1457V25.615C34.522 25.615 35.3579 25.5351 35.5906 25.5169C35.8042 25.5121 36.017 25.489 36.2266 25.4478C36.2266 25.4478 36.2266 24.8082 36.2266 23.8195C36.2266 20.3921 36.2593 10.7131 36.2266 6.32978C36.2266 5.86819 36.2266 4.69783 36.2266 4.51247C36.0485 4.49429 35.8014 4.47249 35.6269 4.44704C35.4525 4.4216 34.4929 4.34891 34.3366 4.34164V3.81099C35.2416 3.81099 36.5864 3.90185 37.6768 3.90185C38.7672 3.90185 40.1302 3.81099 41.2024 3.81099V4.36344L40.6063 4.40343C40.2938 4.43251 39.4214 4.53064 39.207 4.54518V6.24981C39.207 10.1716 39.207 20.4248 39.207 23.8922V25.0371C39.207 25.2988 39.207 25.4587 39.207 25.4696C39.4308 25.5074 39.6565 25.5328 39.883 25.546C40.1266 25.5751 41.1188 25.6187 41.1479 25.6259H41.217V26.1566C41.1515 26.1566 40.9952 26.1748 40.9262 26.1748L40.908 26.1639ZM47.8138 11.2619C47.8138 11.2619 47.3195 13.9952 46.5925 17.8515C46.2291 19.9341 45.4331 25.1207 45.3786 25.4842C45.9029 25.5553 46.4307 25.599 46.9596 25.615H47.1813V26.142C47.0796 26.142 46.8433 26.142 46.8179 26.142C45.9637 26.1239 45.364 26.0585 44.4263 26.0585C44.1828 26.0585 42.8961 26.1239 42.4455 26.1384C42.2565 26.1384 41.9911 26.1384 41.9402 26.1384V25.615C41.9839 25.615 42.0747 25.615 42.1292 25.5932C42.5399 25.5932 43.1687 25.5133 43.703 25.4442C43.7466 25.1861 44.2082 22.6201 44.3536 21.7114C44.9206 18.702 46.5925 8.64865 46.7997 7.29294C46.9851 5.8391 47.1959 4.02179 47.2177 3.80371C47.6575 3.80371 48.4244 3.80371 48.4244 3.80371C48.4244 3.80371 49.9 8.39423 50.1399 9.06664C50.3798 9.73904 54.8976 21.3625 54.8976 21.3625C54.8976 21.3625 57.0202 16.354 58.8957 10.9821C59.2773 9.8917 59.7789 8.4742 60.1496 7.32566L61.2836 3.80371H62.4467C62.4467 3.80371 62.7375 5.85363 62.8393 6.76956C63.1337 9.43009 65.0782 20.2394 65.747 23.7941C65.9141 24.6846 66.045 25.4551 66.045 25.4551C66.2449 25.4551 67.03 25.546 67.4988 25.586L67.9168 25.6078V26.142C67.9168 26.142 67.706 26.142 67.5897 26.142C66.5466 26.142 64.9255 26.0439 63.9224 26.0439C63.0319 26.0439 62.1741 26.1203 61.2836 26.1384C61.131 26.1384 60.9783 26.1384 60.8257 26.1384V25.6187C60.8257 25.6187 60.9493 25.6187 61.011 25.6187C61.4472 25.5969 62.5994 25.4842 62.712 25.4769C62.712 25.2843 62.6503 24.6119 62.5594 23.9213C62.494 23.4343 62.3813 22.6056 62.265 21.7878C62.0106 20.1995 60.8366 13.6099 60.4877 11.7817C60.4295 11.4837 60.3932 11.3128 60.3932 11.3128C60.3932 11.3128 56.7585 20.6465 56.0316 22.4856L55.8899 22.8491C55.192 24.6191 54.6032 26.1966 54.6032 26.1966H53.5674L47.9337 11.5891L47.7992 11.251L47.8138 11.2619ZM83.7964 8.18707H83.4984V8.03078C83.4657 7.64188 83.4003 6.54058 83.3167 5.61739C83.3167 5.53379 83.3167 5.46836 83.3167 5.46836C83.135 5.46836 82.4044 5.43929 82.3898 5.42838C82.3753 5.41748 81.7974 5.42838 81.7828 5.40294C81.7683 5.3775 79.8638 5.40294 77.8902 5.40294H74.4046C74.2047 5.40294 73.4887 5.43202 73.4887 5.43202V14.2169H79.1296L80.6598 14.1733C80.747 14.1733 81.7501 14.1151 81.7938 14.1006C81.8027 14.0463 81.8161 13.9928 81.8337 13.9406C81.9137 13.41 82.0191 12.9048 82.0446 12.5122C82.0585 12.4183 82.067 12.3237 82.07 12.2288H82.3935C82.3935 12.2687 82.3935 12.3705 82.3935 12.5159C82.3935 13.0429 82.3499 14.1442 82.3535 14.8638C82.3535 15.8997 82.3826 16.8374 82.3862 17.3063C82.3862 17.4408 82.3862 17.6698 82.3862 17.6698H82.0227C82.0227 17.6225 82.0227 17.568 82.0227 17.5135C81.961 16.9174 81.9101 16.4958 81.8156 15.8852C81.8156 15.8525 81.8156 15.7434 81.7901 15.6744C81.6084 15.6744 81.1323 15.6453 80.8815 15.638C80.7724 15.638 79.3949 15.638 77.8502 15.6199C77.2142 15.6199 76.0765 15.6489 75.5931 15.6489C75.0261 15.6489 74.092 15.6853 73.485 15.7071V23.6741L73.4887 24.6737L76.9125 24.7355H81.7901C81.8119 24.7355 82.906 24.6918 83.244 24.6991H83.462C83.4947 24.4411 83.5348 23.9213 83.5747 23.4234C83.5747 23.3652 83.7019 22.0422 83.7019 21.686H84C84 22.024 83.9382 26.1966 83.9382 26.1966C83.3857 26.1966 81.6993 26.1966 79.6166 26.1639C78.3518 26.1457 76.9452 26.1457 75.5568 26.1275C74.43 26.1093 73.3142 26.0694 72.2856 26.073C70.8318 26.073 69.4288 26.1675 68.8764 26.1675H68.4838V25.6405H68.582C69.2038 25.6299 69.8243 25.5777 70.4392 25.4842C70.4392 25.3788 70.472 24.0812 70.472 24.0521C70.472 24.0231 70.472 7.55827 70.472 6.81681C70.472 6.02083 70.472 4.6942 70.472 4.57426C70.317 4.5609 70.1629 4.53905 70.0104 4.50883C69.6978 4.46521 69.0835 4.4107 68.7528 4.38889C68.6705 4.39402 68.5879 4.39402 68.5056 4.38889C68.5056 4.38889 68.5056 3.87277 68.5056 3.8655C68.5819 3.8655 68.7346 3.8655 69.0108 3.8655C69.5924 3.8655 70.661 3.95273 71.9694 3.95637C72.7908 3.95637 74.1175 3.91638 75.0661 3.90548C76.4218 3.90548 77.4468 3.90548 78.7589 3.88367L83.4403 3.85096H83.7637V3.95637C83.7637 4.12356 83.7637 4.41433 83.7637 4.77052C83.7637 5.88271 83.7964 7.62732 83.7964 8.19796V8.18707Z" fill="#020D20" fill-opacity="0.43"/>
</svg>
